<svg width="99" height="92" viewBox="0 0 99 92" fill="none" xmlns="http://www.w3.org/2000/svg">
<path fill-rule="evenodd" clip-rule="evenodd" d="M57.2776 4.68629C51.0292 -1.5621 40.8985 -1.5621 34.6501 4.68629L4.68629 34.6501C-1.5621 40.8985 -1.5621 51.0292 4.68629 57.2776L34.6501 87.2414C40.8985 93.4898 51.0292 93.4898 57.2776 87.2414L63.7693 80.7497C63.6208 80.6178 63.4753 80.4807 63.3331 80.3385L35.3265 52.3319C31.4213 48.4267 31.4213 42.095 35.3265 38.1898L63.0538 10.4625L57.2776 4.68629Z" fill="url(#paint0_linear_4_105)"/>
<rect x="70.4042" y="17.2789" width="39.5725" height="39.5725" rx="10" transform="rotate(45 70.4042 17.2789)" fill="url(#paint1_linear_4_105)"/>
<defs>
<linearGradient id="paint0_linear_4_105" x1="-5.20653" y1="48" x2="61.5533" y2="48" gradientUnits="userSpaceOnUse">
<stop stop-color="#FFB28C"/>
<stop offset="1" stop-color="#FF7E40"/>
</linearGradient>
<linearGradient id="paint1_linear_4_105" x1="67.1732" y1="37.9417" x2="108.601" y2="37.9417" gradientUnits="userSpaceOnUse">
<stop stop-color="#FFB28C"/>
<stop offset="1" stop-color="#FF7E40"/>
</linearGradient>
</defs>
</svg>
