<svg width="280" height="96" viewBox="0 0 280 96" fill="none" xmlns="http://www.w3.org/2000/svg">
<path fill-rule="evenodd" clip-rule="evenodd" d="M57.2776 6.68629C51.0292 0.437901 40.8985 0.437905 34.6501 6.68629L4.68629 36.6501C-1.5621 42.8985 -1.5621 53.0292 4.68629 59.2776L34.6501 89.2414C40.8985 95.4898 51.0292 95.4898 57.2776 89.2414L63.7693 82.7497C63.6208 82.6178 63.4753 82.4807 63.3331 82.3385L35.3265 54.3319C31.4213 50.4267 31.4213 44.095 35.3265 40.1898L63.0538 12.4625L57.2776 6.68629Z" fill="url(#paint0_linear_4_80)"/>
<rect x="70.4042" y="19.2789" width="39.5725" height="39.5725" rx="10" transform="rotate(45 70.4042 19.2789)" fill="url(#paint1_linear_4_80)"/>
<path d="M127.762 62.896H142.482V70H118.802V25.328H127.762V62.896ZM181.649 34.544V70H172.625V65.52C171.473 67.056 169.958 68.272 168.081 69.168C166.246 70.0213 164.241 70.448 162.065 70.448C159.292 70.448 156.838 69.872 154.705 68.72C152.572 67.5253 150.886 65.7973 149.649 63.536C148.454 61.232 147.857 58.5013 147.857 55.344V34.544H156.817V54.064C156.817 56.88 157.521 59.056 158.929 60.592C160.337 62.0853 162.257 62.832 164.689 62.832C167.164 62.832 169.105 62.0853 170.513 60.592C171.921 59.056 172.625 56.88 172.625 54.064V34.544H181.649ZM210.074 70L202.778 58.992L196.314 70H186.714L198.298 52.208L186.586 34.544H196.698L203.93 45.488L210.458 34.544H220.058L208.41 52.208L220.186 70H210.074ZM229.596 30.32C228.017 30.32 226.695 29.8293 225.628 28.848C224.604 27.824 224.092 26.5653 224.092 25.072C224.092 23.5787 224.604 22.3413 225.628 21.36C226.695 20.336 228.017 19.824 229.596 19.824C231.175 19.824 232.476 20.336 233.5 21.36C234.567 22.3413 235.1 23.5787 235.1 25.072C235.1 26.5653 234.567 27.824 233.5 28.848C232.476 29.8293 231.175 30.32 229.596 30.32ZM234.012 34.544V70H225.052V34.544H234.012ZM258.609 70.576C255.195 70.576 252.123 69.8293 249.393 68.336C246.662 66.8 244.507 64.6453 242.929 61.872C241.393 59.0987 240.625 55.8987 240.625 52.272C240.625 48.6453 241.414 45.4453 242.993 42.672C244.614 39.8987 246.811 37.7653 249.585 36.272C252.358 34.736 255.451 33.968 258.865 33.968C262.278 33.968 265.371 34.736 268.145 36.272C270.918 37.7653 273.094 39.8987 274.673 42.672C276.294 45.4453 277.105 48.6453 277.105 52.272C277.105 55.8987 276.273 59.0987 274.609 61.872C272.987 64.6453 270.769 66.8 267.953 68.336C265.179 69.8293 262.065 70.576 258.609 70.576ZM258.609 62.768C260.23 62.768 261.745 62.384 263.153 61.616C264.603 60.8053 265.755 59.6107 266.609 58.032C267.462 56.4533 267.889 54.5333 267.889 52.272C267.889 48.9013 266.993 46.32 265.201 44.528C263.451 42.6933 261.297 41.776 258.737 41.776C256.177 41.776 254.022 42.6933 252.273 44.528C250.566 46.32 249.713 48.9013 249.713 52.272C249.713 55.6427 250.545 58.2453 252.209 60.08C253.915 61.872 256.049 62.768 258.609 62.768Z" fill="#FF7E40"/>
<defs>
<linearGradient id="paint0_linear_4_80" x1="-5.20653" y1="50" x2="61.5533" y2="50" gradientUnits="userSpaceOnUse">
<stop stop-color="#FFB28C"/>
<stop offset="1" stop-color="#FF7E40"/>
</linearGradient>
<linearGradient id="paint1_linear_4_80" x1="67.1732" y1="39.9417" x2="108.601" y2="39.9417" gradientUnits="userSpaceOnUse">
<stop stop-color="#FFB28C"/>
<stop offset="1" stop-color="#FF7E40"/>
</linearGradient>
</defs>
</svg>
